grf
version=1
nRows=31
nColumns=19
inDegrees=yes
endheader
time	ground_force_1_vx	ground_force_1_vy	ground_force_1_vz	ground_force_1_px	ground_force_1_py	ground_force_1_pz	ground_moment_1_mx	ground_moment_1_my	ground_moment_1_mz	ground_force_2_vx	ground_force_2_vy	ground_force_2_vz	ground_force_2_px	ground_force_2_py	ground_force_2_pz	ground_moment_2_mx	ground_moment_2_my	ground_moment_2_mz
5.763000	0.516280	1265.122368	-483.890179	0.190976	0.000000	-0.746818	-0.000000	2.475566	-0.000000	-16.697749	1242.415498	484.835408	0.215584	0.000000	-1.594755	-0.000000	-7.378767	-0.000000
5.764000	0.825786	1262.631653	-482.673357	0.191719	0.000000	-0.747711	-0.000000	2.500573	-0.000000	-16.912714	1238.722177	483.618262	0.216140	0.000000	-1.594705	-0.000000	-7.326174	-0.000000
5.765000	1.128212	1260.069487	-481.438301	0.190747	0.000000	-0.745857	0.000000	2.525475	-0.000000	-17.130379	1234.985210	482.387675	0.215782	0.000000	-1.594758	-0.000000	-7.272845	-0.000000
5.766000	1.422040	1257.434004	-480.186539	0.190718	0.000000	-0.746715	0.000000	2.550255	-0.000000	-17.350993	1231.209272	481.143418	0.216034	0.000000	-1.594766	-0.000000	-7.218987	-0.000000
5.767000	1.705854	1254.724197	-478.919546	0.190783	0.000000	-0.746291	0.000000	2.574883	-0.000000	-17.574611	1227.399556	479.885222	0.215962	0.000000	-1.595041	-0.000000	-7.164784	-0.000000
5.768000	1.978409	1251.939870	-477.638611	0.190265	0.000000	-0.746577	0.000000	2.599345	-0.000000	-17.801138	1223.561451	478.612784	0.216206	0.000000	-1.595195	-0.000000	-7.110424	-0.000000
5.769000	2.238578	1249.081681	-476.344875	0.190996	0.000000	-0.745664	0.000000	2.623632	-0.000000	-18.030477	1219.700464	477.325800	0.216521	0.000000	-1.593885	-0.000000	-7.056129	-0.000000
5.770000	2.485331	1246.151197	-475.039410	0.189414	0.000000	-0.745662	0.000000	2.647712	0.000000	-18.262574	1215.822035	476.023988	0.216628	0.000000	-1.595420	-0.000000	-7.002156	-0.000000
5.771000	2.717841	1243.150494	-473.723231	0.189605	0.000000	-0.747805	0.000000	2.671514	0.000000	-18.497393	1211.931086	474.707069	0.217182	0.000000	-1.595487	0.000000	-6.948785	-0.000000
5.772000	2.935533	1240.081135	-472.397292	0.190242	0.000000	-0.746216	0.000000	2.694955	0.000000	-18.734891	1208.031519	473.374752	0.216146	0.000000	-1.594167	0.000000	-6.896297	-0.000000
5.773000	3.138041	1236.943679	-471.062477	0.190058	0.000000	-0.746583	0.000000	2.717979	0.000000	-18.975003	1204.125876	472.026727	0.216848	0.000000	-1.595740	0.000000	-6.844983	-0.000000
5.774000	3.325169	1233.738158	-469.719579	0.190395	0.000000	-0.746409	0.000000	2.740546	0.000000	-19.217581	1200.215338	470.662662	0.216833	0.000000	-1.595839	0.000000	-6.795143	-0.000000
5.775000	3.496851	1230.464744	-468.369257	0.189425	0.000000	-0.749061	0.000000	2.762629	0.000000	-19.462312	1196.300431	469.282221	0.218890	0.000000	-1.595293	0.000000	-6.747059	-0.000000
5.776000	3.653029	1227.124425	-467.012008	0.189954	0.000000	-0.746672	0.000000	2.784213	0.000000	-19.708710	1192.382520	467.885091	0.216987	0.000000	-1.595249	0.000000	-6.700919	-0.000000
5.777000	3.793557	1223.719620	-465.648195	0.190555	0.000000	-0.747596	0.000000	2.805306	0.000000	-19.956204	1188.464685	466.470973	0.217165	0.000000	-1.594891	0.000000	-6.656810	-0.000000
5.778000	3.918298	1220.254195	-464.278117	0.190103	0.000000	-0.746270	0.000000	2.825912	0.000000	-20.204190	1184.550981	465.039540	0.217873	0.000000	-1.595324	0.000000	-6.614771	-0.000000
5.779000	4.027288	1216.733098	-462.902064	0.189368	0.000000	-0.745692	0.000000	2.846006	0.000000	-20.452050	1180.645503	463.590454	0.217554	0.000000	-1.595380	0.000000	-6.574835	-0.000000
5.780000	4.120793	1213.162259	-461.520380	0.190623	0.000000	-0.746792	0.000000	2.865564	0.000000	-20.699257	1176.752389	462.123535	0.217771	0.000000	-1.595809	0.000000	-6.537032	-0.000000
5.781000	4.199282	1209.548448	-460.133502	0.189545	0.000000	-0.743961	0.000000	2.884598	0.000000	-20.945518	1172.876051	460.638944	0.217953	0.000000	-1.594541	0.000000	-6.501388	-0.000000
5.782000	4.263387	1205.898492	-458.741944	0.189827	0.000000	-0.745207	0.000000	2.903166	0.000000	-21.190793	1169.020976	459.137181	0.216833	0.000000	-1.596944	0.000000	-6.467933	-0.000000
5.783000	4.313856	1202.218603	-457.346244	0.190244	0.000000	-0.746887	0.000000	2.921358	0.000000	-21.435156	1165.191328	457.618930	0.217436	0.000000	-1.594591	0.000000	-6.436718	-0.000000
5.784000	4.351531	1198.514645	-455.946939	0.190344	0.000000	-0.745841	0.000000	2.939275	0.000000	-21.678688	1161.390707	456.084971	0.218101	0.000000	-1.596032	0.000000	-6.407826	-0.000000
5.785000	4.377352	1194.792740	-454.544561	0.189461	0.000000	-0.747339	0.000000	2.957010	0.000000	-21.921459	1157.622004	454.536205	0.218011	0.000000	-1.595227	0.000000	-6.381378	-0.000000
5.786000	4.392369	1191.059150	-453.139641	0.189945	0.000000	-0.745665	0.000000	2.974645	0.000000	-22.163564	1153.887363	452.973711	0.218686	0.000000	-1.593295	0.000000	-6.357500	-0.000000
5.787000	4.397766	1187.319624	-451.732682	0.191147	0.000000	-0.745919	0.000000	2.992252	0.000000	-22.405161	1150.188685	451.398776	0.218674	0.000000	-1.595086	0.000000	-6.336282	-0.000000
5.788000	4.394861	1183.579137	-450.324084	0.189984	0.000000	-0.747446	0.000000	3.009867	0.000000	-22.646393	1146.528303	449.812886	0.218202	0.000000	-1.596114	0.000000	-6.317733	-0.000000
5.789000	4.385037	1179.842212	-448.914105	0.189884	0.000000	-0.744994	0.000000	3.027475	0.000000	-22.887263	1142.908851	448.217693	0.218500	0.000000	-1.595401	0.000000	-6.301769	-0.000000
5.790000	4.369581	1176.113131	-447.502912	0.189967	0.000000	-0.745599	0.000000	3.045070	0.000000	-23.127647	1139.332761	446.614971	0.217736	0.000000	-1.596478	0.000000	-6.288266	-0.000000
5.791000	4.349576	1172.395841	-446.090660	0.190422	0.000000	-0.746448	0.000000	3.062714	0.000000	-23.367427	1135.802090	445.006571	0.218760	0.000000	-1.595233	0.000000	-6.277104	-0.000000
5.792000	4.325982	1168.694061	-444.677512	0.190179	0.000000	-0.747035	0.000000	3.080524	0.000000	-23.606533	1132.318599	443.394408	0.217830	0.000000	-1.592929	0.000000	-6.268186	-0.000000
5.793000	4.299873	1165.011426	-443.263677	0.190744	0.000000	-0.746150	0.000000	3.098589	0.000000	-23.844918	1128.884094	441.780437	0.218630	0.000000	-1.595265	0.000000	-6.261431	-0.000000
